<svg width="40" height="40" viewBox="0 0 40 40" fill="none" xmlns="http://www.w3.org/2000/svg">
<path d="M14.1667 14.0417V25.9584C13.9306 25.7222 13.7084 25.4722 13.5001 25.2084C13.2917 24.9445 13.0973 24.6736 12.9167 24.3959V15.6042C13.0973 15.3264 13.2917 15.0556 13.5001 14.7917C13.7084 14.5278 13.9306 14.2778 14.1667 14.0417ZM17.5001 12.0417V27.9584C17.2084 27.8611 16.9237 27.7535 16.6459 27.6354C16.3681 27.5174 16.0973 27.382 15.8334 27.2292V12.7709C16.0973 12.6181 16.3681 12.4827 16.6459 12.3646C16.9237 12.2465 17.2084 12.1389 17.5001 12.0417ZM23.3334 27.6459V12.3542C24.8056 13.007 26.007 14.0139 26.9376 15.375C27.8681 16.7361 28.3334 18.2778 28.3334 20C28.3334 21.7222 27.8681 23.2639 26.9376 24.625C26.007 25.9861 24.8056 26.9931 23.3334 27.6459ZM20.0001 28.3334C19.8612 28.3334 19.7223 28.3299 19.5834 28.3229C19.4445 28.316 19.3056 28.3056 19.1667 28.2917V11.7084C19.3056 11.6945 19.4445 11.684 19.5834 11.6771C19.7223 11.6702 19.8612 11.6667 20.0001 11.6667C20.2779 11.6667 20.5556 11.6806 20.8334 11.7084C21.1112 11.7361 21.389 11.7778 21.6667 11.8334V28.1667C21.389 28.2222 21.1112 28.2639 20.8334 28.2917C20.5556 28.3195 20.2779 28.3334 20.0001 28.3334Z" fill="white"/>
</svg>
